<?xml version="1.0" standalone="no"?>
<!DOCTYPE svg PUBLIC "-//W3C//DTD SVG 1.1//EN" "http://www.w3.org/Graphics/SVG/1.1/DTD/svg11.dtd" >
<svg xmlns="http://www.w3.org/2000/svg">
<metadata>Generated by IcoMoon</metadata>
<defs>
<font id="icomoon" horiz-adv-x="512">
<font-face units-per-em="512" ascent="480" descent="-32" />
<missing-glyph horiz-adv-x="512" />
<glyph unicode="&#x20;" d="" horiz-adv-x="256" />
<glyph unicode="&#xe600;" d="M303.063 151.501c-0.113-0.072-11.878-7.045-23.952-3.942-5.642 1.423-10.588 4.864-14.848 10.168 16.261 2.755 28.068 13.353 28.068 26.481 0 2.786-2.263 5.058-5.048 5.058-2.796 0-5.058-2.274-5.058-5.058 0-9.267-12.002-17.101-26.214-17.101-14.192 0-26.194 7.834-26.194 17.101 0 2.786-2.263 5.058-5.069 5.058-2.796 0-5.059-2.274-5.059-5.058 0-13.127 11.806-23.726 28.068-26.481-4.239-5.315-9.206-8.745-14.838-10.168-12.083-3.103-23.839 3.87-23.962 3.942-1.546 0.942-3.543 1.014-5.11 0.082-1.597-0.88-2.59-2.56-2.59-4.403 0-0.88 0.174-21.699 14.315-35.461 8.315-8.069 19.303-11.858 33.362-11.541 2.786 0.082 4.987 2.396 4.905 5.223-0.082 2.786-2.468 5.058-5.222 4.905-10.701-0.327-19.681 2.57-25.938 8.642-6.195 5.98-9.001 14.060-10.27 20.039 5.909-1.925 14.162-3.41 22.846-1.28 8.059 1.976 15.022 6.707 20.726 14.050 5.735-7.342 12.667-12.073 20.726-14.050 8.519-2.079 16.62-0.676 22.518 1.168-2.898-11.008-11.673-28.795-38.298-29-2.796-0.021-5.059-2.314-5.028-5.089 0.020-2.775 2.283-5.028 5.049-5.028 0.021 0 0.021 0 0.021 0 47.411 0.338 49.736 46.766 49.756 47.227 0.062 1.863-0.901 3.615-2.498 4.536-1.567 0.983-3.574 0.921-5.161-0.021zM342.323 260.946c2.918-0.492 5.284 1.679 5.601 4.454 0.327 2.786-1.659 5.305-4.454 5.622-22.354 2.519-38.81-1.762-48.865-12.841-14.582-15.995-9.779-39.7-9.595-40.724 0.512-2.375 2.611-4.024 4.946-4.024 0.338 0 0.676 0.021 1.045 0.113 2.745 0.563 4.495 3.246 3.942 5.99-0.041 0.103-1.157 6.359-0.276 13.916 3.277-1.822 6.933-2.877 10.762-2.877 13.036 0 23.675 11.417 23.675 25.457 0 1.863-0.635 3.594-0.983 5.356 4.362 0.256 9.022 0.143 14.203-0.44zM318.955 256.062c0-8.458-6.082-15.34-13.548-15.34-2.939 0-5.632 1.26-7.946 3.215 1.147 2.621 2.591 5.191 4.659 7.465 3.922 4.301 9.319 7.198 16.108 8.775 0.327-1.362 0.727-2.703 0.727-4.116zM356.096 231.946c2.775 0.379 4.7 2.939 4.322 5.714s-2.918 4.638-5.704 4.321c-13.435-1.843-29.543-10.046-29.88-38.717-0.338-30.526-20.551-33.382-21.596-33.495-2.683-0.123-4.844-2.345-4.844-5.058 0-2.796 2.263-5.058 5.048-5.058 6.154 0 31.109 7.741 31.509 43.5 0.226 17.685 6.953 26.87 21.145 28.795zM377.6 267.735c-0.082 0.266-0.379 0.369-0.502 0.625 10.076 33.7 9.165 54.815-2.959 64.327-17.357 13.599-48.599-4.332-52.101-6.43-2.406-1.434-3.195-4.526-1.762-6.953 1.454-2.406 4.557-3.154 6.942-1.761 7.895 4.679 30.556 15.145 40.673 7.158 8.295-6.523 7.946-26.102-0.973-55.142-0.481-1.597 0.031-3.082 0.952-4.332 0.021-0.113-0.062-0.174-0.031-0.266 0.123-0.379 10.599-38.677-10.26-53.699-1.833-1.3-2.57-3.687-1.813-5.817 0.031-0.103 3.615-10.384-1.055-18.002-2.898-4.782-8.642-7.783-16.998-8.96-2.775-0.368-4.721-2.928-4.322-5.714 0.338-2.529 2.519-4.373 4.997-4.373 0.215 0 0.461 0.021 0.676 0.051 11.623 1.618 19.804 6.247 24.32 13.814 5.058 8.346 4.004 17.92 2.877 23.019 22.999 20.101 11.827 60.662 11.336 62.454zM217.067 219.536c-0.573-2.745 1.208-5.427 3.942-5.99 0.348-0.092 0.686-0.113 1.054-0.113 2.345 0 4.444 1.618 4.935 4.024 0.205 1.024 4.976 24.73-9.584 40.745-10.076 11.079-26.542 15.36-48.865 12.821-2.775-0.317-4.782-2.816-4.454-5.622 0.297-2.775 2.601-4.946 5.612-4.454 5.161 0.583 9.84 0.666 14.192 0.461-0.348-1.782-0.983-3.481-0.983-5.346 0-14.039 10.619-25.467 23.675-25.467 3.779 0 7.445 1.075 10.762 2.887 0.881-7.577-0.256-13.844-0.286-13.947zM206.602 240.722c-7.465 0-13.537 6.881-13.537 15.34 0 1.454 0.399 2.775 0.748 4.116 6.779-1.557 12.165-4.485 16.066-8.755 2.099-2.274 3.523-4.864 4.669-7.465-2.325-1.976-5.007-3.236-7.946-3.236zM213.524 164.464c0.123 2.704-2.018 5.038-4.7 5.294-0.215 0.010-21.279 2.314-21.637 33.495-0.297 28.682-16.425 36.894-29.881 38.718-2.703 0.327-5.335-1.526-5.703-4.301-0.379-2.775 1.536-5.335 4.322-5.724 14.233-1.956 20.941-11.11 21.115-28.816 0.42-35.758 25.385-43.5 31.518-43.5 2.714 0.010 4.844 2.13 4.966 4.834zM174.295 178.483c-8.366 1.178-14.121 4.178-16.999 8.96-4.638 7.618-1.075 17.899-1.065 18.002 0.758 2.13 0.020 4.516-1.813 5.817-20.869 15.022-10.393 53.32-10.27 53.699 0.030 0.102-0.051 0.184-0.030 0.266 0.922 1.25 1.434 2.734 0.952 4.332-8.919 29.041-9.257 48.599-0.973 55.132 10.087 7.916 32.788-2.468 40.694-7.147 2.355-1.403 5.519-0.645 6.942 1.761 1.444 2.417 0.635 5.519-1.772 6.953-3.512 2.079-34.775 19.978-52.112 6.43-12.124-9.543-13.035-30.628-2.97-64.327-0.113-0.226-0.41-0.327-0.492-0.625-0.502-1.792-11.663-42.352 11.315-62.454-1.116-5.099-2.181-14.674 2.857-23.019 4.536-7.547 12.708-12.175 24.32-13.814 0.226-0.031 0.461-0.051 0.686-0.051 2.488 0 4.669 1.833 5.007 4.373 0.44 2.786-1.495 5.346-4.28 5.714zM213.678 320c1.403 0 2.775 0.583 3.779 1.7 1.331 1.495 32.932 36.086 77.742 0.461 2.181-1.72 5.356-1.382 7.096 0.809s1.392 5.376-0.798 7.106c-52.265 41.595-91.218-1.208-91.618-1.649-1.843-2.089-1.659-5.294 0.43-7.158 0.983-0.85 2.161-1.27 3.369-1.27zM203.12 280.822c1.403 0 2.775 0.583 3.779 1.7 1.7 1.884 42.199 45.773 98.837 0.717 2.181-1.731 5.376-1.383 7.106 0.809 1.751 2.192 1.392 5.366-0.809 7.086-64.246 51.179-112.22-1.362-112.722-1.915-1.843-2.089-1.659-5.274 0.43-7.127 0.983-0.829 2.181-1.27 3.379-1.27z" />
<glyph unicode="&#xe601;" d="M252.938 356.711c-5.12 4.546-14.91 8.141-21.75 7.997l-101.017-2.171c-6.841-0.143-12.564-5.868-12.708-12.708l-2.171-101.017c-0.144-6.84 3.451-16.63 7.998-21.739l124.263-139.797c4.547-5.12 12.227-5.335 17.070-0.491l128.614 128.615c4.834 4.844 4.618 12.524-0.491 17.070l-139.806 124.242zM183.726 296.274c-7.291-7.291-19.118-7.291-26.409 0-7.291 7.28-7.28 19.108 0.010 26.399 7.28 7.291 19.097 7.291 26.388 0 7.301-7.291 7.301-19.118 0.010-26.399z" />
<glyph unicode="&#xe602;" d="M448 96h-266.469l-112 256h-69.531v32h90.469l112-256h245.531zM288 16c0-26.5-21.5-48-48-48-26.531 0-48 21.5-48 48s21.469 48 48 48c26.5 0 48-21.5 48-48zM448 16c0-26.5-21.5-48-48-48s-48 21.5-48 48 21.5 48 48 48 48-21.5 48-48zM400 480c-61.844 0-112-50.156-112-112s50.156-112 112-112 112 50.156 112 112-50.156 112-112 112zM464 352h-48v-48h-32v48h-48v32h48v48h32v-48h48v-32zM400 224c-62.5 0-115.281 40.25-135.156 96h-104.844l64-160h224l36.938 92.313c-23.875-17.563-53.094-28.313-84.938-28.313z" />
<glyph unicode="&#xe603;" d="M192 448h-160c-17.6 0-32-14.4-32-32v-160c0-17.6 14.398-32 32-32h160c17.6 0 32 14.4 32 32v160c0 17.6-14.4 32-32 32zM192 320h-160v32h160v-32zM448 448h-160c-17.602 0-32-14.4-32-32v-416c0-17.6 14.398-32 32-32h160c17.6 0 32 14.4 32 32v416c0 17.6-14.4 32-32 32zM448 160h-160v32h160v-32zM448 256h-160v32h160v-32zM192 192h-160c-17.6 0-32-14.4-32-32v-160c0-17.6 14.398-32 32-32h160c17.6 0 32 14.4 32 32v160c0 17.6-14.4 32-32 32zM192 64h-64v-64h-32v64h-64v32h64v64h32v-64h64v-32z" />
<glyph unicode="&#xe604;" d="M128 320c0 70.692 57.308 128 128 128s128-57.308 128-128c0-70.692-57.308-128-128-128s-128 57.308-128 128zM384 160h-256c-70.692 0-128-57.309-128-128v-32h512v32c0 70.691-57.308 128-128 128z" />
<glyph unicode="&#xe605;" d="M466.895 174.875c-26.863 46.527-10.708 106.152 36.076 133.244l-50.313 87.146c-14.375-8.427-31.088-13.259-48.923-13.259-53.768 0-97.354 43.873-97.354 97.995h-100.629c0.133-16.705-4.037-33.641-12.979-49.126-26.862-46.528-86.578-62.351-133.431-35.379l-50.312-87.146c14.485-8.236 27.025-20.294 35.943-35.739 26.819-46.454 10.756-105.96-35.854-133.112l50.313-87.146c14.325 8.348 30.958 13.127 48.7 13.127 53.598 0 97.072-43.596 97.35-97.479h100.627c-0.043 16.537 4.136 33.285 12.983 48.609 26.818 46.453 86.388 62.297 133.207 35.506l50.313 87.145c-14.39 8.233-26.846 20.249-35.717 35.614zM256 120.334c-57.254 0-103.668 46.412-103.668 103.667 0 57.254 46.413 103.667 103.668 103.667s103.666-46.413 103.666-103.667c-0.001-57.255-46.412-103.667-103.666-103.667z" />
<glyph unicode="&#xe606;" d="M496 288h-176v176c0 8.836-7.164 16-16 16h-96c-8.836 0-16-7.164-16-16v-176h-176c-8.836 0-16-7.164-16-16v-96c0-8.836 7.164-16 16-16h176v-176c0-8.836 7.164-16 16-16h96c8.836 0 16 7.164 16 16v176h176c8.836 0 16 7.164 16 16v96c0 8.836-7.164 16-16 16z" />
<glyph unicode="&#xe607;" d="M443.778 335.608c-2.174 3.117-5.676 5.043-9.476 5.205l-235.683 10.159c-6.762 0.297-12.414-4.925-12.702-11.654s4.925-12.414 11.654-12.702l219.725-9.472-43.203-134.794h-192.256l-34.734 189.123c-0.764 4.145-3.608 7.603-7.534 9.143l-56.889 22.349c-6.27 2.454-13.344-0.626-15.807-6.887-2.459-6.266 0.621-13.345 6.888-15.807l50.583-19.87 35.349-192.443c1.065-5.786 6.107-9.988 11.992-9.988h5.863l-13.389-37.193c-1.121-3.113-0.659-6.575 1.248-9.281s5.002-4.315 8.31-4.315h9.391c-5.819-6.477-9.391-15.007-9.391-24.381 0-20.167 16.409-36.572 36.571-36.572s36.572 16.404 36.572 36.572c0 9.375-3.572 17.904-9.391 24.381h79.734c-5.819-6.477-9.39-15.007-9.39-24.381 0-20.167 16.404-36.572 36.572-36.572s36.572 16.404 36.572 36.572c0 9.375-3.572 17.904-9.39 24.381h11.423c5.611 0 10.159 4.547 10.159 10.159s-4.547 10.159-10.159 10.159h-194.816l10.971 30.476h183.845c5.299 0 9.992 3.425 11.606 8.469l50.793 158.476c1.166 3.617 0.569 7.57-1.605 10.691zM210.286 66.539c-8.964 0-16.254 7.29-16.254 16.254s7.29 16.254 16.254 16.254 16.254-7.29 16.254-16.254-7.29-16.254-16.254-16.254zM344.381 66.539c-8.964 0-16.254 7.29-16.254 16.254s7.29 16.254 16.254 16.254 16.254-7.29 16.254-16.254-7.29-16.254-16.254-16.254z" />
<glyph unicode="&#xe608;" d="M373.76 332.774l-235.52 0.026 117.76-204.8z" />
<glyph unicode="&#xe609;" d="M138.24 128h235.52l-117.786 204.8z" />
<glyph unicode="&#xe60a;" d="M245.728 278.608c4.56-7.92 15.984-7.92 20.608 0l59.392 102.944c4.592 7.92-1.12 17.824-10.288 17.824h-29.696v63.12c0 6.56-5.312 11.888-11.904 11.888h-35.664c-6.576 0-11.872-5.328-11.872-11.888v-63.136h-29.68c-9.184 0-14.928-9.904-10.336-17.84l59.44-102.912zM450.8 298.64l-123.376 55.856-48.112-83.376c-4.912-8.448-13.632-13.456-23.312-13.456-9.712 0-18.416 5.024-23.28 13.456l-48.144 83.36-123.376-55.84c-4.784-2.16-7.856-6.912-7.856-12.176v-215.344c0-5.296 3.104-10.080 7.952-12.224l189.28-84.128c3.456-1.552 7.408-1.552 10.88 0l189.248 84.128c4.832 2.144 7.936 6.928 7.936 12.224v215.344c0.016 5.248-3.072 10.016-7.84 12.176zM226 18.544l-142.592 63.392v166.944l142.592-63.376v-166.96z" />
<glyph unicode="&#xe60b;" d="M448 416h-384l-64-448h512l-64 448zM366.063 291.594c-9.188-75.657-54.094-131.594-110.063-131.594s-100.875 55.938-110.063 131.594c-10.499 5.218-17.937 15.843-17.937 28.406 0 17.688 14.313 32 32 32s32-14.313 32-32c0-10.938-5.844-20.125-14.25-25.906 7.75-57.469 40.438-102.094 78.25-102.094 37.844 0 70.5 44.625 78.25 102.094-8.406 5.781-14.25 14.968-14.25 25.906 0 17.688 14.313 32 32 32s32-14.313 32-32c0-12.563-7.406-23.188-17.937-28.406z" />
<glyph unicode="&#xe60c;" d="M454.102 281.331h-3.406c-0.757 2.27-1.892 3.784-3.406 4.541l-133.96 144.178c0.757 3.028 1.135 6.055 1.135 9.082 0 11.352-3.596 21.002-10.785 28.949s-16.083 11.92-26.678 11.92h-42.005c-9.839 0-18.353-3.974-25.543-11.92s-10.785-17.596-10.785-28.949v-9.082l-133.96-144.178c-0.757-0.757-1.892-2.27-3.406-4.541h-61.304v-80.603h23.84v-174.829c0-15.894 5.677-29.517 17.029-40.869s24.975-17.029 40.869-17.029h372.363c15.894 0 29.517 5.676 40.869 17.029s17.029 24.976 17.029 40.869v174.829h23.841v80.603h-81.738zM128.284 37.25c0-6.055-2.27-11.353-6.811-15.894s-10.028-6.812-16.461-6.812-11.92 2.271-16.461 6.812-6.811 9.839-6.811 15.894v139.637c0 6.812 2.27 12.488 6.811 17.029s10.028 6.812 16.461 6.812 11.92-2.271 16.461-6.812 6.811-10.217 6.811-17.029v-139.637zM232.727 37.25c0-6.055-2.27-11.353-6.811-15.894s-10.028-6.812-16.461-6.812-11.92 2.271-16.461 6.812-6.811 9.839-6.811 15.894v139.637c0 6.812 2.27 12.488 6.811 17.029s10.028 6.812 16.461 6.812 11.92-2.271 16.461-6.812 6.811-10.217 6.811-17.029v-139.637zM349.659 37.25c0-6.055-2.271-11.353-6.812-15.894s-10.027-6.812-16.461-6.812-11.92 2.271-16.461 6.812-6.812 9.839-6.812 15.894v139.637c0 6.812 2.271 12.488 6.812 17.029s10.027 6.812 16.461 6.812 11.92-2.271 16.461-6.812 6.812-10.217 6.812-17.029v-139.637zM124.878 281.331l107.849 116.931h46.545l108.984-116.931h-263.379zM454.102 37.25c0-6.055-2.271-11.353-6.812-15.894s-10.027-6.812-16.461-6.812-11.92 2.271-16.461 6.812-6.812 9.839-6.812 15.894v139.637c0 6.812 2.271 12.488 6.812 17.029s10.027 6.812 16.461 6.812 11.92-2.271 16.461-6.812 6.812-10.217 6.812-17.029v-139.637z" horiz-adv-x="536" />
<glyph unicode="&#xe60d;" d="M229.315 426.612l-0.034-229.264 229.315-0.051c0-126.657-102.624-229.28-229.28-229.28-126.64-0.017-229.315 102.624-229.315 229.264 0 126.25 101.98 228.62 227.993 229.332 0.458 0 0.899 0 1.322 0zM266.262 480c136.317 0 246.805-110.555 246.805-246.873l-246.975-0.271c0 0-0.813 247.144 0.17 247.144z" horiz-adv-x="513" />
<glyph unicode="&#xe60e;" d="M238.298 229.226c62.522 1.184 103.818 59.92 103.626 147.552-0.096 63.008-40.832 99.882-108.587 98.384-65.238-1.493-101.226-37.584-100.582-100.842 0.987-91.050 41.162-146.272 105.541-145.094zM367.856 109.99h89.579v-18.976h-89.579v18.976zM482.262 168.635h-103.376c-4.635 5.67-10.544 9.861-17.082 12.411l-56.026 25.354-22.944 20.79-45.493-41.542-44.475 41.915-25.963-21.893-54.037-24.87c-8-3.291-15.094-8.954-19.867-16.944l-67.606-113.050-14.144-22.608h207.6v-36.918c0-10.214 8.278-18.486 18.486-18.486h244.928c10.208 0 18.486 8.277 18.486 18.486v158.869c0.005 10.208-8.277 18.486-18.486 18.486zM482.598-8.714h-244.923v158.864h244.923v-158.864zM265.914 114.4h68.842v-88.256h-68.842v88.256zM367.856 65.413h54.72v-18.971h-54.72v18.971z" />
<glyph unicode="&#xe60f;" d="M366.95 396.032l-25.682-16.635-2.34-13.276 25.682 16.635zM362.148 368.814l-25.677-16.63-2.698-15.273 25.682 16.635zM371.522 421.924l-22.062 3.891-5.729-32.476 25.677 16.63zM298.389 283.331c-7.659 0-13.865-6.206-13.865-13.865 0-7.665 6.205-13.87 13.865-13.87 0.353 0 0.691 0.082 1.034 0.102 3.344-24.642-22.512-47.175-46.996-48.496-27.582-1.49-39.019 25.221-41.303 48.788 6.129 1.433 10.701 6.907 10.701 13.471 0 7.654-6.206 13.865-13.865 13.865-7.655 0-13.865-6.206-13.865-13.865 0-4.245 1.946-7.993 4.951-10.537 2.028-32.425 20.506-68.322 58.527-63.171 31.826 4.311 60.272 34.985 52.562 66.396 1.326 2.13 2.125 4.618 2.125 7.312-0.005 7.659-6.216 13.87-13.87 13.87zM403.604 35.856c-10.194 40.135-40.361 177.899-0.533 265.529 0.041 0.087 0.046 0.179 0.082 0.266 0.215 0.512 0.374 1.029 0.486 1.567 0.031 0.133 0.077 0.261 0.103 0.389 0.108 0.666 0.144 1.341 0.108 2.018-0.005 0.123-0.046 0.246-0.057 0.363-0.057 0.543-0.159 1.081-0.322 1.613-0.057 0.189-0.123 0.374-0.195 0.558-0.174 0.466-0.394 0.916-0.65 1.357-0.062 0.107-0.092 0.236-0.164 0.353-0.041 0.066-0.108 0.108-0.144 0.174-0.072 0.102-0.113 0.215-0.19 0.317l-28.642 38.512c-1.019 1.372-2.422 2.345-3.973 2.939 3.303-8.003 2.745-17.731-1.669-25.144l9.467-12.729h-39.957l17.065 11.054 2.58 14.608-25.682-16.635-1.598-9.027h-26.911l13.148 20.736 2.995 4.864-20.286 12.913-48.814 30.955-14.7-23.178 14.264-46.295h-7.378l-29.881 96.999-78.29-24.12 10.578-34.345h-8.208c-3.333 0-6.39-1.863-7.911-4.833l-19.748-38.513c-0.087-0.169-0.123-0.348-0.205-0.522-0.103-0.226-0.189-0.45-0.272-0.691-0.144-0.425-0.251-0.855-0.323-1.29-0.041-0.205-0.087-0.405-0.108-0.614-0.056-0.579-0.067-1.152-0.010-1.726 0.005-0.077-0.005-0.149 0-0.226 0.077-0.645 0.236-1.285 0.451-1.905 0.020-0.051 0.020-0.103 0.036-0.154 42.076-114.483 12.457-233.401 2.376-267.12-0.579-1.94-1.654-5.555 1.065-9.159 1.674-2.222 4.311-3.527 7.091-3.527h0.118c2.412 0.031 4.173 0.86 5.484 2.022h266.137c1.264-0.937 2.913-1.587 5.084-1.587 2.745 0 5.335 1.27 7.019 3.435 2.688 3.446 1.869 6.676 1.075 9.8zM141.68 334.684h8.249l6.39-20.736h-25.282l10.644 20.736zM130.985 41.979c11.74 44.437 32.108 149.668-2.007 254.188h252.749c-31.769-85.745-9.442-205.261 2.079-254.188h-252.821z" />
<glyph unicode="&#xe610;" d="M399.698 313.63c-23.747 41.155-76.565 55.286-117.698 31.539l-181.207-104.622 86.159-149.238 181.207 104.622c41.144 23.747 55.296 76.554 31.539 117.698zM362.014 206.602l-170.547-98.468-73.851 127.908 170.537 98.468c35.267 20.357 80.528 8.233 100.885-27.034s8.233-80.528-27.024-100.874zM294.308 323.85l-159.887-92.314 61.553-106.599 159.877 92.313c29.44 16.999 39.516 54.64 22.528 84.070-16.998 29.44-54.64 39.516-84.070 22.528zM233.79 189.133l-18.8 11.305c-5.232 3.134-11.233 7.055-16.261 10.885l-0.154-0.185c3.543-5.54 7.158-11.541 11.223-18.565l7.495-12.985-8.96-5.171-24.863 43.079 11.367 6.584 18.064-10.629c5.181-3.072 10.844-6.963 15.565-10.701l0.195 0.113c-3.922 5.315-7.465 11.018-11.192 17.48l-7.27 12.585 8.94 5.202 24.883-43.1-10.23-5.898zM252.467 199.906l-24.873 43.090 26.594 15.35 4.608-7.987-16.804-9.697 5.15-8.95 15.862 9.155 4.577-7.926-15.862-9.154 5.908-10.23 17.705 10.23 4.608-7.987-27.474-15.892zM317.113 237.24l-14.336 16.425c-3.328 3.87-6.37 7.475-9.718 12.124l-0.123-0.071c2.027-5.315 3.687-9.81 5.181-14.736l6.605-20.9-10.66-6.174-35.113 37.182 10.414 6.021 13.527-15.882c3.911-4.567 8.007-9.625 11.233-13.548l0.133 0.071c-1.986 5.069-3.963 10.844-5.939 16.773l-6.543 19.753 10.353 5.98 13.937-16.169c3.87-4.485 7.229-8.694 10.639-13.107l0.133 0.082c-2.14 5.171-4.086 10.773-6.144 16.394l-6.676 19.671 9.923 5.735 13.742-49.52-10.567-6.103zM359.957 275.292c-6.38-3.697-14.541-1.506-18.217 4.885-3.676 6.369-1.495 14.53 4.885 18.207 6.37 3.666 14.531 1.495 18.207-4.874 3.687-6.39 1.505-14.551-4.874-18.217z" />
<glyph unicode="&#xe611;" d="M337.12 346.16c0.368 20.696-8.096 40.544-24.384 56.352-16.48 15.992-39.128 25.968-63.768 28.104-53.272 4.672-98.208-28.344-102.080-72.912-0.16-1.832-0.136-3.64-0.144-5.448l-29.864 0.944-55.312-304 320.856-38-15.52 334-29.784 0.96zM283.76 402.704c2.032 3.464 7.424 5.456 10.944 2.872 10.72-7.864 19.424-17.688 25.536-29.536 4.72-9.152-9.088-17.248-13.816-8.072-4.8 9.304-11.312 17.568-19.8 23.8-3.504 2.568-5.24 6.88-2.864 10.936zM186.736 354.24c1.792 20.632 24.824 36.8 52.44 36.8 2.096 0 4.2-0.096 6.336-0.272 15.496-1.344 29.472-7.368 39.36-16.968 8-7.76 12.272-17.032 12.312-26.36l-110.504 3.536c-0.024 1.080-0.040 2.168 0.056 3.264zM157.536 161.296c-5.064-3.744-11.984-5.328-20.736-4.752-8.944 0.592-15.848 3.056-20.712 7.4-4.856 4.344-7.056 10.008-6.592 17.008l13.552-0.896c0.232-3.104 0.944-5.456 2.136-7.064 2.168-2.928 6.112-4.576 11.824-4.952 3.416-0.224 6.224-0.048 8.4 0.544 4.144 1.136 6.336 3.6 6.592 7.408 0.144 2.224-0.728 4.008-2.632 5.352-1.904 1.32-4.976 2.576-9.224 3.776l-7.248 2.088c-7.128 2.064-11.976 4.112-14.56 6.144-4.376 3.408-6.344 8.416-5.904 15.016 0.4 6.024 2.968 10.888 7.712 14.576s11.456 5.248 20.136 4.672c7.248-0.48 13.304-2.768 18.176-6.864s7.192-9.728 6.968-16.896l-13.648 0.904c0.016 4.064-1.624 7.064-4.912 8.992-2.192 1.272-4.976 2.024-8.344 2.248-3.752 0.248-6.792-0.288-9.128-1.6s-3.584-3.28-3.76-5.896c-0.16-2.408 0.824-4.272 2.952-5.608 1.368-0.888 4.312-2.016 8.84-3.384l11.736-3.576c5.144-1.56 8.952-3.448 11.424-5.664 3.84-3.432 5.568-8.144 5.168-14.144-0.408-6.144-3.152-11.088-8.216-14.832zM218.536 152.88l-3.568 14.128-25.024 1.656-5.52-13.528-14.848 0.984 28.704 65.688 16.064-1.064 19.584-68.88-15.392 1.016zM290.696 148.104l-48.12 3.184 4.456 67.288 14.2-0.936-3.656-55.192 33.928-2.248-0.808-12.096zM354.144 199.52l-35.952 2.376-0.944-14.288 33-2.184-0.776-11.688-33 2.184-1.144-17.304 37.616-2.488-0.8-12.096-51.488 3.408 4.456 67.288 49.832-3.296-0.8-11.912zM194.576 180.008l17.4-1.152-6.832 27.040zM432.56 83.92l-59.224 260.616 20-321.336 36.976 53.008-27.72 5.2 1.48 7.856z" />
<glyph unicode="&#xe612;" d="M176.333 161.604l-22.016-40.414c-1.058-2.355-4.062-6.349-11.537-6.349-9.148 0-24.474 5.769-34.338 9.967l-1.945-4.164-14.951 6.895 1.945 4.164c-13.107 6.587-29.355 16.179-32.358 24.406l-1.194 4.539 1.194 3.209 16.794 43.349c-17.272-10.923-32.188-34.816-50.995-73.046l-21.334-44.919c-1.809-3.993-3.584-8.022-5.598-12.151l127.591-59.017c1.945 4.13 3.721 8.158 5.598 12.083l20.48 45.261c16.999 39.151 25.531 65.911 22.665 86.187zM135.407 63.096l-15.872-34.406-106.257 49.152 15.941 34.406c4.54 9.659 16.282 14.678 30.993 14.678 10.991 0 23.722-2.833 36.318-8.635 29.355-13.585 46.797-38.264 38.878-55.194zM127.010 78.49c1.604-4.471 1.672-8.363 0.205-11.606l-12.083-26.18-89.805 41.575 12.117 26.146c2.73 5.905 11.196 9.421 22.733 9.421 10.070 0 21.606-2.765 32.529-7.817 16.896-7.783 30.037-19.865 34.304-31.539zM151.21 204.066c3.141-1.331 6.417-2.185 9.797-2.457 0.546-3.243 0.717-6.519 0.41-9.899 9.387-5.803 15.053-10.649 14.063-12.697l-29.321-53.897c-1.673-3.55-20.070 1.467-41.267 11.23-21.094 9.796-36.966 20.582-35.294 24.235l22.118 57.207c1.024 2.048 8.294 0.887 18.671-2.491 6.486 6.622 15.019 10.172 23.416 10.172 0.614-2.97 1.536-6.042 3.413-9.25-5.734 1.024-11.674-0.717-16.793-4.471 5.12-1.979 10.615-4.267 16.214-6.895 5.666-2.628 10.923-5.257 15.667-7.851-0.171 2.355-0.239 4.745-1.024 6.929 0 0.068 0 0.103-0.069 0.137zM369.186 194.782c-1.263-6.895 0.341-19.968 3.277-26.317l74.991-162.748c3.789-8.294 8.192-17.75 1.673-27.99-3.857-6.041-10.582-9.728-17.715-9.728v0c-12.595 0-18.262 9.558-22.87 17.203l-92.672 155.75-25.122-50.995c-5.871-11.947-17.545-28.911-26.522-38.57l-50.517-54.477c-6.588-7.065-11.742-12.595-21.401-12.595-8.055 0-15.394 4.642-18.944 11.913-5.871 12.288 1.263 21.197 7.612 29.048l49.869 61.815c5.325 6.622 12.391 20.173 14.745 28.399l18.535 64.717c2.663 9.489 5.803 26.385 6.587 36.216l8.192 99.397c-40.38-13.381-79.906-66.117-93.286-88.201-5.701-9.216-10.479-17.169-22.494-17.203h-0.069c-7.339 0-14.268 3.925-17.988 10.342-6.213 10.513-1.673 18.774 3.584 28.262 3.072 5.495 77.654 137.046 178.279 129.126 43.452-3.72 57.344-36.386 66.526-57.992 2.116-5.018 4.199-9.933 6.587-14.302l57.413-103.765c5.462-9.933 2.185-22.801-7.543-28.536-9.796-5.769-22.118-3.072-28.126 6.519l-42.735 68.198-9.865-53.487zM394.137 439.518c4.335-26.317-13.517-51.132-39.8-55.433-26.351-4.335-51.132 13.551-55.399 39.833-4.335 26.317 13.449 51.132 39.731 55.433 26.317 4.335 51.132-13.517 55.466-39.834z" horiz-adv-x="460" />
<glyph unicode="&#xe613;" d="M534.979 480h-500.291c-19.091 0-34.688-15.62-34.688-34.663v-359.708c0-19.018 15.596-34.663 34.688-34.663h500.291c19.067 0 34.663 15.645 34.663 34.663v359.708c0 19.043-15.596 34.663-34.663 34.663zM526.251 111.125h-482.861v320.253h482.861v-320.253zM220.641 34.515l-65.463-66.515h260.241l-65.464 66.515zM117.116 175.342c12.784 0 23.199 10.389 23.199 23.174 0 2.322-0.685 4.425-1.32 6.551 29.652 23.907 82.037 66.050 105.92 84.457 3.764-2.665 8.14-4.571 13.103-4.571 4.131 0 7.798 1.369 11.147 3.251 15.351-13.053 41.459-35.25 59.988-51.017-0.245-1.345-0.782-2.542-0.782-3.96 0-12.809 10.413-23.198 23.223-23.198s23.223 10.389 23.223 23.198c0 2.274-0.685 4.351-1.296 6.429l59.988 54.17c3.226-1.686 6.698-2.885 10.609-2.885 12.809 0 23.199 10.389 23.199 23.199s-10.389 23.198-23.199 23.198-23.174-10.389-23.174-23.222c0-3.056 0.66-5.965 1.736-8.629-16.769-15.131-42.632-38.501-58.765-53.070-3.594 2.322-7.651 4.034-12.296 4.034-5.476 0-10.267-2.175-14.227-5.329-15.327 13.029-40.114 34.101-57.739 49.086 0.929 2.493 1.589 5.109 1.589 7.944 0 12.809-10.389 23.199-23.199 23.199s-23.198-10.389-23.198-23.199c0-2.835 0.685-5.476 1.613-7.969l-106.482-82.844c-3.716 2.543-7.993 4.4-12.834 4.4-12.809 0-23.198-10.389-23.198-23.199-0.025-12.809 10.365-23.199 23.174-23.199z" horiz-adv-x="570" />
<glyph unicode="&#xe614;" d="M502.4 300.8l-48 63.968c-1.872 2.512-4.096 4.688-6.4 6.768v76.464c0 17.664-14.336 32-32 32h-320c-17.68 0-32-14.336-32-32v-76.48c-2.304-2.064-4.528-4.224-6.4-6.72l-47.984-63.984c-6.208-8.256-9.616-18.48-9.616-28.816v-16c0-26.464 21.536-48 48-48v0-208c0-17.664 14.336-32 32-32h352c17.664 0 32 14.336 32 32v208c26.464 0 48 21.536 48 48v16c0 10.336-3.408 20.56-9.6 28.8zM416 448v-64h-320v64h320zM163.088 240h-67.024l64 112h35.024l-32-112zM211.744 352h36.256v-112h-68.256l32 112zM264 352h36.256l32-112h-68.256v112zM316.88 352h35.024l64-112h-67.024l-32 112zM32 256v16c0 3.472 1.12 6.832 3.2 9.6l48 64c3.024 4.032 7.76 6.4 12.8 6.4h45.632l-64-112h-29.632c-8.832 0-16 7.152-16 16zM320 0h-120v160h120v-160zM432 0h-96v160c0 8.848-7.184 16-16 16h-120c-8.832 0-16-7.152-16-16v-160h-104v208h352v-208zM480 256c0-8.848-7.152-16-16-16h-29.664l-64 112h45.664c5.024 0 9.776-2.368 12.784-6.4l48-64c2.096-2.768 3.216-6.128 3.216-9.6v-16z" />
<glyph unicode="&#xe615;" d="M437.048 369.688h-95.656v37.52c0 39.24-31.912 71.168-71.16 71.168-39.24 0-71.168-31.928-71.168-71.168v-37.52h-95.736l-17.536-401.064h368.8l-17.544 401.064zM215.080 407.216c0 30.4 24.76 55.152 55.16 55.152 30.392 0 55.12-24.76 55.12-55.152v-37.52h-110.28v37.52z" />
<glyph unicode="&#xe616;" d="M415.936 337.44c-0.752 8.24-7.648 14.56-15.936 14.56h-80v32c0 52.944-43.056 96-96 96s-96-43.056-96-96v-32h-80c-8.288 0-15.184-6.32-15.936-14.56l-32-352c-0.4-4.464 1.088-8.912 4.128-12.224 3.024-3.328 7.312-5.216 11.808-5.216h416c4.496 0 8.784 1.888 11.808 5.216 3.008 3.312 4.528 7.744 4.128 12.224l-32 352zM160 384c0 35.296 28.72 64 64 64s64-28.704 64-64v-32h-128v32zM33.536 0l29.072 320h65.392v-36.432c-9.536-5.552-16-15.76-16-27.568 0-17.664 14.336-32 32-32s32 14.336 32 32c0 11.808-6.464 22.016-16 27.568v36.432h128v-36.432c-9.536-5.552-16-15.744-16-27.568 0-17.664 14.336-32 32-32s32 14.336 32 32c0 11.808-6.464 22.016-16 27.568v36.432h65.392l29.072-320h-380.928z" horiz-adv-x="448" />
<glyph unicode="&#xe617;" d="M0 272.75c0-29.781 20.438-54.594 48-61.75v-210.25h-32c-8.813 0-16-7.156-16-16s7.188-16 16-16h480c8.875 0 16 7.156 16 16s-7.125 16-16 16h-32v210.25c27.563 7.156 48 31.969 48 61.75v16h-512v-16zM320 208.75c35.375 0 64 28.656 64 64 0-29.781 20.438-54.594 48-61.75v-210.25h-240v208c35.375 0 64 28.656 64 64 0-35.344 28.688-64 64-64zM176 211v-210.25h-96v210.25c27.563 7.156 48 31.969 48 61.75 0-29.781 20.438-54.594 48-61.75zM448 432.75h-384l-64-128h512l-64 128zM135.188 397.187l-32-64c-1.438-2.813-4.25-4.438-7.188-4.438-1.188 0-2.406 0.25-3.563 0.844-3.938 1.969-5.563 6.781-3.563 10.719l32 64c2 3.938 6.781 5.531 10.719 3.594 3.97-1.969 5.532-6.781 3.595-10.719zM199.188 397.187l-32-64c-1.438-2.813-4.25-4.438-7.188-4.438-1.188 0-2.406 0.25-3.563 0.844-3.938 1.969-5.563 6.781-3.563 10.719l32 64c2 3.938 6.813 5.531 10.719 3.594 3.97-1.969 5.532-6.781 3.595-10.719zM264 336.75c0-4.438-3.563-8-8-8-4.406 0-8 3.563-8 8v64c0 4.438 3.594 8 8 8 4.438 0 8-3.563 8-8v-64zM355.875 329.75c-1.25-0.688-2.563-1-3.875-1-2.813 0-5.563 1.5-7 4.156l-35 64c-2.125 3.875-0.688 8.75 3.188 10.844 3.813 2.125 8.75 0.75 10.875-3.156l35-64c2.062-3.875 0.687-8.75-3.188-10.844zM419.563 329.594c-1.125-0.594-2.313-0.844-3.563-0.844-2.938 0-5.75 1.625-7.125 4.438l-32 64c-2 3.938-0.375 8.75 3.563 10.719 3.875 1.969 8.75 0.375 10.75-3.594l32-64c1.937-3.938 0.375-8.751-3.625-10.719zM136 94.312v36.875c-4.688 2.813-8 7.688-8 13.563 0 8.844 7.188 16 16 16 8.875 0 16-7.156 16-16 0-5.875-3.281-10.75-8-13.563v-36.875c4.719-2.813 8-7.688 8-13.563 0-8.844-7.125-16-16-16-8.813 0-16 7.156-16 16 0 5.876 3.313 10.751 8 13.563zM64 464.75c0 8.844 7.188 16 16 16h352c8.875 0 16-7.156 16-16s-7.125-16-16-16h-352c-8.812 0-16 7.156-16 16zM280.438 123.094l-11.313 11.313 45.25 45.25 11.313-11.313-45.25-45.25zM280.438 77.844l-11.313 11.313 90.5 90.5 11.313-11.313-90.5-90.5zM359.625 134.406l11.313-11.313-45.25-45.25-11.313 11.313 45.25 45.25z" />
<glyph unicode="&#xe618;" d="M252.272 435.232l-246.464-105.312v-333.328h492.928v333.328l-246.464 105.312zM466.736 28.608h-428.928v280.192l214.464 91.632 214.464-91.632v-280.192zM64.944 122.896h111.040v-68.592h-111.040v68.592zM196.912 122.896h111.040v-68.592h-111.040v68.592zM328.88 122.896h111.040v-68.592h-111.040v68.592zM64.944 217.184h111.040v-68.592h-111.040v68.592zM196.912 217.184h111.040v-68.592h-111.040v68.592zM196.912 311.472h111.040v-68.592h-111.040v68.592z" />
<glyph unicode="&#xe619;" d="M423.056 95.44c-17.44 0-31.584-14.144-31.584-31.6 0-17.44 14.144-31.584 31.584-31.584 17.456 0 31.584 14.144 31.584 31.584 0 17.456-14.128 31.6-31.584 31.6zM423.056 48.064c-8.704 0-15.776 7.056-15.776 15.776 0 8.736 7.072 15.808 15.776 15.808s15.792-7.072 15.792-15.808c0-8.72-7.088-15.776-15.792-15.776zM257.792 95.44c-17.424 0-31.568-14.144-31.568-31.6 0-17.44 14.144-31.584 31.568-31.584 17.44 0 31.584 14.144 31.584 31.584 0 17.456-14.128 31.6-31.584 31.6zM257.792 48.064c-8.704 0-15.792 7.056-15.792 15.776 0 8.736 7.072 15.808 15.792 15.808s15.792-7.072 15.792-15.808c0.016-8.72-7.056-15.776-15.792-15.776zM493.040 95.44v80.368l-51.168 74.976h-78.4l-0.064-153.888h-77.744c7.968-6.736 13.424-16.192 14.944-27.008h79.648c2.96 21.104 20.896 37.392 42.8 37.392 21.92 0 39.84-16.288 42.816-37.392h39.536v25.552h-12.368zM386.528 177.984v45.248l47.2-0.24 30.592-45.008h-77.792zM169.776 96.896v-27.024h45.232c1.52 10.832 6.976 20.288 14.928 27.024h-60.16zM32.848 332.608l180.864 77.28 180.864-77.28v-63.744h26.992v81.552l-207.856 88.8-207.84-88.8v-280.544h143.504v26.432h-116.528zM55.744 175.808h93.648v-57.824h-93.648v57.824zM167.024 175.808h93.648v-57.824h-93.648v57.824zM278.336 175.808h64.176v-57.824h-64.176v57.824zM55.744 255.328h93.648v-57.84h-93.648v57.84zM167.024 255.328h93.648v-57.84h-93.648v57.84zM167.024 334.848h93.648v-57.84h-93.648v57.84z" />
<glyph unicode="&#xe61a;" d="M215.438 317.527c6.141-2.332 12.695-3.519 19.261-3.519 15.423 0 30.349 6.722 40.582 18.257 10.333 11.646 15.185 27.456 13.22 42.897-1.928 15.145-10.402 29.010-22.944 37.701-12.846 8.904-29.284 11.815-44.421 7.919-14.697-3.782-27.373-13.846-34.45-27.261-7.301-13.844-8.211-30.61-2.465-45.169 5.556-14.085 17.060-25.447 31.217-30.825zM270.717 34.229c0.008 0.004 0.010 0.010 0.010 0.016-0.006-0.010-0.016-0.020-0.023-0.030-0.014-0.022-0.027-0.043-0.041-0.065 0.015 0.027 0.036 0.053 0.054 0.079zM369.123 422.467c-0.3 0.208-0.598 0.415-0.871 0.605 0.248-0.173 0.527-0.367 0.871-0.605zM367.905 423.313c-0.419 0.291-0.72 0.5-0.791 0.55 0.071-0.050 0.322-0.224 0.791-0.55zM367.114 423.863c-0.028 0.019-0.022 0.015 0 0v0zM391.201 402.325l7.967 9.244c2.139 2.482 6.307 3.020 9.307 1.198l83.064-50.349 15.005 26.416c1.448 2.549 0.13 5.624-2.942 6.869l-90.381 36.579c-3.074 1.244-6.738 0.187-8.188-2.363l-5.391-9.494-4.473 1.81c-8.572 3.469-18.094 3.302-26.047 0.232-0.004-0.001-0.006-0.002-0.008-0.003-7.308 4.967-17.266 3.141-22.317-4.131 0 0-50.374-76.801-67.649-97.369-12.889-15.347-25.169-19.631-43.674-17.073-9.139 1.263-122.367 29.414-122.367 29.414-6.203 1.499-12.636-0.963-16.451-5.777-11.094 1.42-22.438-3.982-28.029-14.41l-2.137-3.979-10.188 5.466c-2.737 1.467-6.143 0.44-7.611-2.295l-43.156-80.436c-1.465-2.735-0.438-6.142 2.297-7.61l28.348-15.208 28.754 88.63c1.037 3.204 4.479 4.957 7.682 3.918l11.934-3.872 0.475 1.46-8.631 4.63 2.137 3.98c3.006 5.603 8.8 8.749 14.758 8.688 0.222-2.907 1.219-5.718 2.875-8.111-2.765-3.053-4.947-6.718-6.298-10.883l-1.513-4.662-11.935 3.872c-3.202 1.039-6.644-0.714-7.681-3.918l-30.567-94.211c-1.041-3.204 0.715-6.643 3.918-7.682l81.201-26.346c3.203-1.039 6.643 0.716 7.684 3.918l30.566 94.211c1.037 3.204-0.717 6.644-3.92 7.683l-11.935 3.873 1.514 4.66c0.763 2.349 1.212 4.724 1.386 7.083l77.992-28.706c0.699-2.115 6.722-18.409 10.138-35.462 2.174-10.849 3.097-21.903 3.724-32.939 0.439-7.738 0.32-15.48 0.232-23.226-0.092-7.982 1.217-15.791 4.379-23.151-0.271-10.081-0.791-20.16-1.647-30.209-0.938-10.995-2.662-21.924-4.46-32.819-2.271-13.767-5.828-19.059-6.066-19.418-4.408-1.667-9.742-1.096-14.307-0.497-5.449 0.716-10.82 2.003-16.093 3.547-4.634 1.357-9.203 2.928-13.708 4.665-3.58 1.381-7.066 2.958-10.596 4.456-1.643 0.698-3.273 1.468-5.080 1.86-1.855 0.403-3.769 0.533-5.662 0.388-3.749-0.287-7.391-1.656-10.395-3.917-6.275-4.722-9.178-12.974-7.262-20.583 1.356-5.385 4.985-10.021 9.892-12.624 15.744-8.609 32.581-15.997 50.175-19.814 9.526-2.067 19.408-3.084 29.107-1.689 10.078 1.448 19.659 5.674 26.975 12.845 1.736 1.702 3.338 3.573 4.781 5.531 0.789 1.297 1.774 2.496 2.598 3.771 1.43 2.206 2.746 4.481 3.965 6.809 2.438 4.656 4.523 9.497 6.377 14.413 3.723 9.868 6.604 20.048 9.076 30.294 1.621 6.727 3.066 13.496 4.378 20.291 2.739 0.12 5.451 0.438 8.142 0.965 4.866-9.945 9.374-20.071 13.201-30.465-10.246-3.997-15.259-16.059-10.901-26.155 2.947-6.836 6.528-13.367 11.558-18.92 5.468-6.036 12.389-10.722 20.289-12.896 4.323-1.19 8.859-1.592 13.296-0.907 8.91 1.397 16.368 8.333 17.957 17.717 3.429 20.206 0.155 40.862-4.487 60.615-2.518 10.702-5.582 21.276-9 31.724-2.236 6.84-4.557 13.688-7.242 20.369-0.531 1.325-1.041 2.662-1.608 3.974 0.663 4.44 0.72 8.896 0.351 13.365-0.369 4.467-0.674 8.949-1.135 13.408-1.090 10.552-2.563 21.090-4.548 31.511-4.137 21.704-9.954 43.15-18.507 63.556-2.322 5.542-4.818 11.007-7.601 16.335l32.283 60.463 3.633-2.2-7.964-9.246c-2.139-2.481-1.441-5.968 1.563-7.789l88.295-53.52c3.002-1.818 7.171-1.281 9.309 1.2l54.207 62.904c2.139 2.481 1.441 5.969-1.564 7.787l-88.295 53.52c-3.002 1.821-7.17 1.283-9.309-1.198l-7.965-9.245-4.371 2.648c-3.545 2.15-7.428 3.626-11.424 4.47 1.119 3.181 1.189 6.583 0.297 9.739 4.488 1.439 9.668 1.391 14.373-0.514l4.473-1.809-4.568-8.042 1.366-0.832zM135.598 282.658l-1.514-4.662-34.131 11.075 1.51 4.662c1.002 3.086 2.775 5.704 5.025 7.737l29.814-10.973c0.337-2.558 0.143-5.224-0.704-7.839zM378.938 390.325l4.367-2.65-22.783-26.441-4.369 2.648c-0.508 0.308-0.99 0.633-1.451 0.972l15.213 28.493c3.151-0.352 6.258-1.346 9.023-3.022zM368.252 423.072c-0.125 0.088-0.242 0.169-0.347 0.241 0.109-0.076 0.226-0.157 0.347-0.241z" />
<glyph unicode="&#xe61b;" d="M378.668 314.579l-71.639 83.103 2.69 27.233c0.203 2.105-0.74 4.165-2.478 5.38-1.752 1.215-4.010 1.394-5.904 0.479l-99.121-47.884c-2.024-0.988-3.311-3.048-3.311-5.286v-31.261l-64.642-48.481c-1.475-1.122-2.349-2.861-2.349-4.694v-227.673c0-2.45 1.54-4.669 3.857-5.494l118.223-42.988c0.646-0.252 1.329-0.365 2.004-0.365 0.967 0 1.934 0.252 2.808 0.736l118.228 64.488c1.882 1.007 3.055 2.999 3.055 5.128v223.756c0 1.398-0.504 2.747-1.418 3.823zM210.623 373.93l86.398 41.728-1.605-16.189-84.793-44.821v19.281zM250.132 242.919v-212.029l-106.496 38.721v220.623l59.168 44.45 40.216-74.585c1.060-1.971 3.072-3.093 5.165-3.093 0.939 0 1.889 0.232 2.775 0.707 2.852 1.536 3.917 5.084 2.377 7.952l-41.053 76.138 2.483 1.857 84.789 44.723 65.69-76.186-115.115-69.279zM368.363 90.482l-106.5-58.1v203.923l106.5 64.077v-209.899zM293.108 191.675c0 0 0 0 0.004 0 6.887 0 15.539 2.43 25.031 7.050 17.822 8.659 37.615 25.235 39.212 38.859 0.561 4.815-1.219 7.952-2.808 9.736-1.861 2.109-5.522 4.6-12.353 4.6-6.892 0-15.543-2.451-25.023-7.075-17.822-8.66-37.624-25.235-39.225-38.863-0.561-4.807 1.219-7.944 2.804-9.732 1.869-2.077 5.526-4.575 12.357-4.575zM322.304 234.313c7.668 3.734 14.917 5.888 19.891 5.888 2.353 0 3.413-0.508 3.519-1.26-0.715-6.095-13.499-20.338-32.703-29.679-7.672-3.735-14.925-5.863-19.899-5.863h-0.004c-2.349 0-3.413 0.479-3.515 1.215 0.715 6.115 13.511 20.354 32.711 29.7zM274.964 120.889c-1.475 2.885-0.337 6.437 2.539 7.899l72.553 37.193c2.861 1.487 6.416 0.337 7.892-2.543 1.475-2.885 0.337-6.416-2.543-7.899l-72.553-37.193c-0.853-0.435-1.772-0.642-2.666-0.642-2.13 0-4.185 1.171-5.221 3.186zM274.964 86.060c-1.475 2.881-0.337 6.437 2.539 7.896l72.553 37.193c2.861 1.487 6.416 0.321 7.892-2.543 1.475-2.885 0.337-6.412-2.543-7.899l-72.553-37.189c-0.853-0.435-1.772-0.642-2.666-0.642-2.13 0-4.185 1.171-5.221 3.186zM159.866 198.51l1.26-61.497-4.295 1.536-1.244 61.497 4.279-1.536zM209.757 180.707l1.244-61.497-4.291 1.553-1.248 61.464 4.295-1.519zM167.916 195.645l1.256-61.497-2.133 0.756-1.28 61.484 2.157-0.743zM213.687 179.286l1.256-61.489-2.154 0.768-1.251 61.497 2.149-0.776zM200.818 183.877l1.256-61.464-2.142 0.764-1.263 61.481 2.149-0.78zM190.269 187.668l1.26-61.513-2.142 0.793-1.263 61.484 2.145-0.764zM177.559 192.166l1.276-61.469-4.295 1.528-1.263 61.497 4.283-1.557zM196.335 185.49l1.256-61.481-4.291 1.532-1.248 61.476 4.283-1.528zM181.143 190.927l1.26-61.522-2.13 0.768-1.268 61.497 2.137-0.743zM219.417 177.27l1.256-61.501-2.145 0.748-1.256 61.509 2.145-0.756zM229.076 173.788l1.239-61.461-4.275 1.515-1.268 61.497 4.303-1.553zM232.639 172.54l1.256-61.497-2.142 0.776-1.26 61.464 2.145-0.743z" />
<glyph unicode="&#xe61c;" d="M318.672 196.704l-0.080-16.864v-0.176h-301.52v-27.6c0 0 37.088-91.104 37.312-92.704 11.664 10.544 36.656 26.848 68.192 10.384 14.272-7.44 31.36-7.408 45.584 0.144 13.28 7.040 31.792 11.088 53.328-0.16 14.288-7.456 31.344-7.392 45.584 0.16 13.28 7.040 31.792 11.072 53.328-0.176 14.288-7.456 31.312-7.392 45.568 0.16 15.968 8.464 39.52 12.576 66.784-9.008l70.72 135.824h-184.8zM34.096 188.192h85.184v110.72l21.184 17.040h-63.776v24.72h22.032v9.936h-22.032v50.528h-8.512v-50.544h-22.016v-9.936h22.016v-24.704h-59.616v-17.040h25.552v-110.72zM76.192 286.64h27.712v-25.44h-27.712v25.44zM76.192 245.872h27.712v-25.424h-27.712v25.424zM134.192 261.2h175.344v-73.008h-175.344v73.008zM318.64 278.8h175.344v-73.008h-175.344v73.008zM246.432 343.296h63.12v-73.008h-63.12v73.008zM171.36 311.232h63.136v-40.96h-63.136v40.96zM171.36 361.28h63.136v-40.96h-63.136v40.96zM318.64 378.88h63.12v-40.96h-63.12v40.96zM318.64 328.832h134.656v-40.96h-134.656v40.96z" />
<glyph unicode="&#xe61d;" d="M164.853 123.053h284v-35.447h-312.505l-57.577 261.358h-78.772v35.447h107.24l57.614-261.358zM197.113 64.010c-26.507 0-47.996-21.47-47.996-47.978s21.488-48.014 47.996-48.014 47.996 21.507 47.996 48.014-21.488 47.978-47.996 47.978zM394.978 64.010c-26.49 0-47.996-21.47-47.996-47.978s21.507-48.014 47.996-48.014c26.507 0 47.996 21.507 47.996 48.014s-21.488 47.978-47.996 47.978zM182.788 149.615l-42.097 218.034h68.879l152.671 112.351 68.312-92.768-2.95-19.583h59.115l-49.224-218.034h-254.708zM419.416 379.666l-16.341-12.017h14.546l1.796 12.017zM226.204 367.668h35.887l-2.161 2.931 6.962 5.111 5.917-8.042h8.812l-9.031 12.255 6.962 5.111 12.769-17.366h9.966l-16.286 22.111 6.962 5.111 20.060-27.222h11.467l-23.833 32.388 6.943 5.13 27.607-37.518h9.966l-31.106 42.281 6.943 5.093 34.861-47.373h30.556l30.025 22.075-56.258 76.5-133.986-98.575zM385.8 382.817l-38.25 52.008-6.979-5.111 38.269-52.008 6.962 5.111zM372.427 372.925l-38.287 52.026-6.925-5.111 38.305-52.008 6.906 5.092z" horiz-adv-x="487" />
</font>
</defs>
</svg>
